<svg version="1.0" xmlns="http://www.w3.org/2000/svg"
 width="360.000000pt" height="360.000000pt" viewBox="0 0 360.000000 360.000000"
 preserveAspectRatio="xMidYMid meet">

<g transform="translate(0.000000,360.000000) scale(0.100000,-0.100000)"
fill="#ffffff" stroke="none">
<path d="M1924 3538 c-367 -23 -709 -173 -1014 -447 -97 -86 -280 -309 -280
-341 0 -4 16 -28 36 -54 20 -26 34 -49 32 -51 -2 -2 -39 -17 -82 -32 -79 -29
-79 -29 -99 -82 -17 -43 -18 -54 -7 -61 7 -4 65 -28 129 -52 l116 -43 -147 -3
c-129 -2 -147 -5 -152 -20 -32 -111 -41 -199 -41 -397 0 -217 6 -269 51 -465
26 -114 38 -130 91 -130 18 0 33 -2 33 -5 0 -2 -13 -25 -29 -50 l-29 -45 21
-55 c11 -30 43 -103 71 -162 l52 -107 17 69 c32 130 115 273 214 366 21 20 74
53 118 72 l80 35 -3 88 c-9 215 51 403 171 540 45 51 72 56 114 20 l28 -24
-50 -54 c-98 -104 -153 -218 -175 -362 -15 -103 -6 -185 35 -316 42 -134 54
-191 44 -218 -5 -12 -55 -91 -113 -176 -57 -84 -107 -163 -111 -175 -9 -31 16
-57 90 -92 82 -40 112 -38 157 9 51 52 128 175 187 296 63 129 68 133 123 111
31 -12 65 -16 133 -13 79 2 94 0 127 -20 46 -29 93 -98 108 -162 16 -68 5
-138 -36 -218 -18 -37 -32 -67 -31 -68 1 0 26 -14 56 -30 74 -40 154 -121 241
-244 97 -137 198 -238 275 -276 55 -27 69 -29 170 -29 102 0 115 3 187 34 43
18 80 37 83 41 3 5 -15 28 -39 50 -50 46 -71 97 -82 197 -5 52 -13 72 -46 115
-89 118 -118 212 -118 384 l0 110 -61 37 c-62 36 -155 73 -261 102 -32 9 -58
20 -58 24 0 4 15 25 34 46 l33 39 174 -22 c220 -28 216 -27 223 -64 13 -65 6
-165 -15 -224 -16 -44 -22 -84 -23 -154 -1 -84 2 -101 26 -150 15 -30 49 -80
76 -110 43 -48 50 -62 57 -115 11 -93 40 -158 90 -204 45 -42 60 -47 83 -33 9
6 -1 22 -37 58 -54 54 -81 122 -81 203 0 35 -8 57 -39 105 -51 78 -88 160 -96
211 -6 36 -3 43 24 69 l31 30 0 265 c0 504 -37 791 -100 791 -40 0 -201 -118
-535 -395 -99 -82 -210 -149 -279 -170 -67 -20 -56 -4 18 28 138 61 302 188
554 432 l151 147 -42 56 c-125 165 -383 292 -597 292 -131 0 -319 -44 -430
-100 l-45 -22 23 25 c26 28 116 78 173 96 30 10 36 16 37 41 2 67 27 80 182
101 111 15 313 6 408 -19 l73 -19 25 48 c44 88 124 218 174 283 l48 65 -61 20
c-189 62 -432 89 -628 71 -450 -41 -793 -270 -954 -637 -19 -43 -35 -72 -35
-65 0 27 62 157 114 236 293 450 825 610 1479 445 l118 -29 59 52 c89 78 221
162 360 230 69 33 127 62 129 64 7 6 -56 54 -129 98 -178 106 -495 216 -692
241 l-54 7 -48 -126 c-27 -69 -50 -126 -52 -126 -2 0 -1 61 3 135 l6 135 -84
1 c-46 1 -97 2 -114 3 -16 0 -80 -2 -141 -6z m-49 -1005 c-295 -65 -502 -194
-631 -391 -63 -96 -65 -99 -48 -62 111 235 426 461 639 458 33 0 51 -2 40 -5z
m-160 -1032 c45 -20 105 -83 105 -109 0 -11 -7 -6 -21 16 -50 78 -177 108
-250 59 -45 -30 -79 -92 -79 -145 0 -45 27 -111 64 -151 l21 -24 -22 12 c-12
6 -35 33 -50 59 -95 162 66 359 232 283z m3 -92 c43 -27 65 -107 39 -142 -10
-15 -12 -11 -9 28 5 56 -16 91 -65 112 -41 16 -94 11 -113 -12 -7 -8 -17 -15
-23 -15 -21 0 20 31 58 44 40 14 74 9 113 -15z m-385 -199 c7 -14 28 -30 46
-36 l34 -11 -38 -6 c-27 -4 -52 -20 -83 -49 l-45 -43 27 46 c30 52 32 90 11
169 -20 73 -18 75 11 10 13 -30 30 -66 37 -80z"/>
<path d="M2301 1189 c-11 -30 -7 -32 94 -54 44 -9 122 -32 173 -50 50 -18 92
-31 92 -29 0 7 -115 61 -167 78 -48 16 -52 19 -42 38 6 11 9 21 7 24 -2 2 -36
7 -76 10 -69 7 -72 6 -81 -17z"/>
</g>
</svg>
